<svg width="24" height="25" viewBox="0 0 24 25" fill="none" xmlns="http://www.w3.org/2000/svg">
	<g clip-path="url(#clip0_120_32)">
		<path
			d="M12 0.796875C5.37 0.796875 0 6.16988 0 12.7969C0 18.0999 3.438 22.5969 8.205 24.1819C8.805 24.2949 9.025 23.9239 9.025 23.6049C9.025 23.3199 9.015 22.5649 9.01 21.5649C5.672 22.2889 4.968 19.9549 4.968 19.9549C4.422 18.5699 3.633 18.1999 3.633 18.1999C2.546 17.4559 3.717 17.4709 3.717 17.4709C4.922 17.5549 5.555 18.7069 5.555 18.7069C6.625 20.5419 8.364 20.0119 9.05 19.7049C9.158 18.9289 9.467 18.3999 9.81 18.0999C7.145 17.7999 4.344 16.7679 4.344 12.1699C4.344 10.8599 4.809 9.78988 5.579 8.94987C5.444 8.64687 5.039 7.42688 5.684 5.77388C5.684 5.77388 6.689 5.45188 8.984 7.00388C9.944 6.73688 10.964 6.60488 11.984 6.59888C13.004 6.60488 14.024 6.73688 14.984 7.00388C17.264 5.45188 18.269 5.77388 18.269 5.77388C18.914 7.42688 18.509 8.64687 18.389 8.94987C19.154 9.78988 19.619 10.8599 19.619 12.1699C19.619 16.7799 16.814 17.7949 14.144 18.0899C14.564 18.4499 14.954 19.1859 14.954 20.3099C14.954 21.9159 14.939 23.2059 14.939 23.5959C14.939 23.9109 15.149 24.2859 15.764 24.1659C20.565 22.5919 24 18.0919 24 12.7969C24 6.16988 18.627 0.796875 12 0.796875Z"
			fill="currentColor" />
	</g>
	<defs>
		<clipPath id="clip0_120_32">
			<rect width="24" height="24" fill="currentColor" transform="translate(0 0.5)" />
		</clipPath>
	</defs>
</svg>