<svg width="24" height="25" viewBox="0 0 24 25" fill="none" xmlns="http://www.w3.org/2000/svg">
	<g clip-path="url(#clip0_120_30)">
		<path
			d="M20.447 20.952H16.893V15.383C16.893 14.055 16.866 12.346 15.041 12.346C13.188 12.346 12.905 13.791 12.905 15.285V20.952H9.351V9.5H12.765V11.061H12.811C13.288 10.161 14.448 9.211 16.181 9.211C19.782 9.211 20.448 11.581 20.448 14.666V20.952H20.447ZM5.337 7.933C4.193 7.933 3.274 7.007 3.274 5.868C3.274 4.73 4.194 3.805 5.337 3.805C6.477 3.805 7.401 4.73 7.401 5.868C7.401 7.007 6.476 7.933 5.337 7.933ZM7.119 20.952H3.555V9.5H7.119V20.952ZM22.225 0.5H1.771C0.792 0.5 0 1.274 0 2.229V22.771C0 23.727 0.792 24.5 1.771 24.5H22.222C23.2 24.5 24 23.727 24 22.771V2.229C24 1.274 23.2 0.5 22.222 0.5H22.225Z"
			fill="currentColor" />
	</g>
	<defs>
		<clipPath id="clip0_120_30">
			<rect width="24" height="24" fill="currentColor" transform="translate(0 0.5)" />
		</clipPath>
	</defs>
</svg>